<svg width="164" height="87" viewBox="0 0 164 87" fill="none" xmlns="http://www.w3.org/2000/svg">
<path opacity="0.85" d="M157.417 7.65739C152.235 2.86516 143.426 0.159645 135.618 0.989798C131.737 1.40249 128.13 2.68454 125.32 4.9966C122.51 7.30809 120.432 10.703 119.731 15.4297C119.001 20.3526 117.629 23.7207 115.655 25.83C113.617 28.0077 110.98 28.7958 108.051 28.6057C105.222 28.4218 102.162 27.3318 99.0888 25.8907C95.9973 24.4411 92.7624 22.5723 89.5881 20.7382C86.3934 18.8921 83.2589 17.0803 80.2955 15.6923C77.3125 14.2952 74.6341 13.3917 72.3552 13.263C71.2362 13.1998 70.2349 13.3261 69.3386 13.6586C68.4436 13.9907 67.5922 14.5524 66.8123 15.4346C65.2285 17.2262 63.9859 20.2884 63.3593 25.1652C62.7199 30.1444 61.349 33.5715 59.3041 35.7591C57.2044 38.0054 54.4552 38.8801 51.3805 38.8418C48.3855 38.8043 45.0989 37.9037 41.7698 36.6866C38.4306 35.4658 34.9083 33.8722 31.4653 32.3809C27.9937 30.8776 24.5905 29.4722 21.3892 28.5679C18.1775 27.6606 15.3008 27.2967 12.8444 27.7586C10.4506 28.2089 8.28674 29.4779 6.54533 32.1397C4.78385 34.8324 3.4814 38.9178 2.88265 44.8955C2.27753 50.9368 1.69516 56.0234 1.35774 60.2743C1.02001 64.5292 0.935929 67.8788 1.30788 70.4431C1.68171 73.0202 2.49752 74.6526 3.78844 75.6284C5.05054 76.5823 6.96804 77.0568 10.0169 76.9302C13.0747 76.8031 17.0987 76.0775 22.3657 74.788C27.619 73.5019 34.0388 71.6728 41.8695 69.3696C57.5203 64.7662 78.7501 58.2867 107.349 50.5471C135.859 42.8313 150.934 34.3516 157.579 26.7032C160.888 22.8957 162.095 19.31 161.874 16.1158C161.652 12.9181 159.994 10.0399 157.417 7.65739Z" fill="#FCB99F" fill-opacity="0.94" stroke="url(#paint0_linear_2134_24)" stroke-width="1.68085"/>
<path d="M7.12632 64.5835C6.82449 64.6255 6.5506 64.5697 6.30464 64.4163C6.07938 64.2569 5.92505 64.0322 5.84162 63.7423C5.79991 63.5974 5.78628 63.4331 5.80073 63.2496C5.83589 63.0601 5.90807 62.8824 6.01727 62.7164C6.20901 62.3697 6.89505 62.0266 8.0754 61.6869C8.00866 60.8316 7.85612 59.9898 7.61776 59.1615C7.52838 58.8509 7.44056 58.5847 7.3543 58.3629C7.26804 58.141 7.20704 57.968 7.17129 57.8437C7.04019 57.3882 7.10753 56.9988 7.37331 56.6757C7.65979 56.3466 8.02047 56.1195 8.45533 55.9944C8.99374 55.8394 9.39486 55.8697 9.65869 56.0853C9.94324 56.2949 10.1898 56.7621 10.3984 57.4869C10.7082 58.5637 10.9189 59.6466 11.0305 60.7356C11.3618 60.6403 11.8115 60.4885 12.3794 60.2802C13.1543 60.0124 13.7178 59.8278 14.0699 59.7265C14.4219 59.6252 14.749 59.632 15.0511 59.7468C15.368 59.835 15.5711 60.0344 15.6605 60.3451C15.8929 61.1527 15.6676 61.7332 14.9845 62.0867C14.2719 62.4936 13.114 62.9501 11.5107 63.4563C11.681 64.2818 11.9032 65.1708 12.1773 66.1234C12.6063 67.6144 13.0511 68.8093 13.5116 69.7082C13.8265 70.3351 14.1736 70.7622 14.5529 70.9894C14.947 71.1899 15.4442 71.2038 16.0448 71.031C16.3968 70.9297 16.7324 70.7322 17.0515 70.4386C17.2583 70.2221 17.4652 70.0841 17.6723 70.0245C17.9622 69.9411 18.1961 69.9746 18.374 70.1253C18.5725 70.2699 18.7165 70.4976 18.8059 70.8082C18.9728 71.388 18.8022 71.964 18.2942 72.5362C17.7802 73.0877 17.0366 73.5035 16.0633 73.7836C15.4628 73.9564 14.8102 73.9872 14.1055 73.8761C13.4216 73.759 12.8099 73.5426 12.2706 73.2269C12.1906 73.1827 12.0082 72.9773 11.7234 72.6108C11.4385 72.2443 11.1655 71.8408 10.9042 71.4003C10.417 70.4866 9.9202 69.1497 9.41369 67.3895C9.19321 66.6233 8.93966 65.5864 8.65304 64.2787L7.12632 64.5835ZM35.6016 66.4123C35.7326 66.8679 35.5944 67.3225 35.1868 67.7761C34.7999 68.2238 34.3994 68.5072 33.9852 68.6264C33.1983 68.8528 32.5399 68.9414 32.01 68.8921C31.4948 68.8161 30.9631 68.5655 30.4147 68.1403C30.0133 68.7715 29.3825 69.3454 28.5221 69.8621C27.6558 70.358 26.8292 70.7192 26.0423 70.9457C24.7585 71.3151 23.604 71.2773 22.5791 70.8323C21.5482 70.3666 20.839 69.4608 20.4517 68.1148C20.2849 67.5349 20.2882 66.9622 20.4618 66.3965C20.6294 65.8102 20.9287 65.2531 21.3599 64.7255C21.8472 64.1592 22.4442 63.6623 23.1508 63.2347C23.8514 62.7865 24.6159 62.4432 25.4442 62.2048C25.8791 62.0797 26.4206 62.0135 27.0688 62.0064C27.717 61.9992 28.2336 62.0412 28.6185 62.1322L28.4755 61.6352C28.1537 60.517 27.664 59.8283 27.0065 59.569C26.3429 59.2891 25.4106 59.3219 24.2096 59.6676C23.8575 59.7689 23.5264 59.9426 23.216 60.1889C22.9264 60.4292 22.5999 60.7362 22.2366 61.1098C21.7461 61.5873 21.2421 61.9005 20.7244 62.0495C20.538 62.1031 20.3262 62.0295 20.0891 61.8287C19.8459 61.6071 19.6946 61.3928 19.635 61.1858C19.4622 60.5852 19.5928 59.9871 20.0267 59.3913C20.4814 58.7896 21.0724 58.272 21.7997 57.8385C22.5211 57.3843 23.1924 57.0678 23.8136 56.889C24.4348 56.7102 25.185 56.6289 26.0641 56.645C26.9373 56.6404 27.6923 56.7707 28.3292 57.0358C29.1053 57.3955 29.7634 57.89 30.3032 58.5194C30.8579 59.1222 31.2574 59.8481 31.5017 60.6971C31.5791 60.9663 31.6746 61.3761 31.7882 61.9264C31.9136 62.5181 32.0359 63.0211 32.1551 63.4353C32.2087 63.6216 32.2684 63.9071 32.3343 64.2918C32.424 64.7593 32.5075 65.1276 32.585 65.3968C32.6565 65.6453 32.8123 65.8359 33.0523 65.9687C33.2863 66.0807 33.5276 66.101 33.7761 66.0295L34.6369 65.7481C34.8646 65.6826 35.0645 65.7148 35.2364 65.8447C35.4083 65.9746 35.53 66.1638 35.6016 66.4123ZM25.3673 68.4828C26.2577 68.2266 26.9764 67.9189 27.5233 67.5597C28.0702 67.2005 28.6966 66.6503 29.4026 65.909C29.3842 65.5331 29.3018 65.0523 29.1557 64.4665C27.8618 64.2559 26.8422 64.2578 26.0967 64.4723C25.2477 64.7166 24.5365 65.0894 23.9633 65.5907C23.39 66.092 23.2166 66.7361 23.443 67.523C23.5562 67.9165 23.8172 68.2001 24.226 68.374C24.6348 68.5479 25.0152 68.5841 25.3673 68.4828ZM44.8623 58.0969C45.0578 58.1528 45.4354 58.2571 45.9951 58.41C46.5695 58.5362 46.9932 58.7618 47.2661 59.0869C47.5391 59.4119 47.7709 59.9058 47.9615 60.5685C48.1761 61.3139 48.1493 62.0392 47.8813 62.7441C47.6073 63.4284 47.1734 64.0241 46.5794 64.5314C46.1627 64.8755 45.6807 65.1487 45.1336 65.351C44.6071 65.5474 43.9607 65.7558 43.1945 65.9763C42.7804 66.0955 42.2241 66.1883 41.5257 66.2547C40.848 66.3152 40.37 66.3294 40.0917 66.2974C39.3218 66.1153 38.6376 65.8413 38.039 65.4755C37.4404 65.1096 37.0666 64.6678 36.9176 64.1501C36.7985 63.7359 36.8377 63.3659 37.0354 63.0399C37.2331 62.7139 37.5494 62.4884 37.9842 62.3632C38.212 62.2977 38.4473 62.2973 38.6902 62.3619C38.9478 62.3999 39.1388 62.4795 39.2634 62.6006C39.6461 63.0734 40.1454 63.367 40.7612 63.4813C41.3771 63.5955 41.9646 63.5722 42.5237 63.4113C44.491 62.8452 45.3733 62.2102 45.1707 61.5061C45.117 61.3197 45.0236 61.1897 44.8902 61.1159C44.7716 61.0155 44.6116 60.927 44.4102 60.8504C44.0874 60.7415 43.6477 60.655 43.0911 60.591C42.5552 60.521 42.086 60.4878 41.6835 60.4915C40.7809 60.5495 39.8721 60.5083 38.9572 60.3679C38.1045 60.2097 37.3536 59.8989 36.7045 59.4354C36.0494 58.9512 35.5938 58.2639 35.3376 57.3735C35.1826 56.8351 35.2274 56.2504 35.4719 55.6195C35.7311 54.9619 36.0912 54.421 36.5521 53.9969C36.8832 53.7447 37.4493 53.4136 38.2507 53.0036C39.052 52.5936 39.608 52.344 39.9186 52.2546C40.3949 52.1175 40.9275 52.0203 41.5164 51.963C42.0994 51.8849 42.5656 51.9077 42.9151 52.0314C43.5695 52.2018 44.1264 52.4227 44.5857 52.6942C45.0391 52.9449 45.3313 53.2981 45.4624 53.7536C45.5279 53.9814 45.5476 54.2448 45.5216 54.5438C45.4895 54.8221 45.41 55.0132 45.2829 55.117C45.014 55.3513 44.6725 55.5281 44.2583 55.6473C44.0719 55.7009 43.9017 55.6938 43.7477 55.626C43.6144 55.5523 43.4217 55.4283 43.1698 55.2542C42.8407 54.9677 42.5637 54.8232 42.3388 54.8207C42.0724 54.83 41.6891 54.8618 41.189 54.9161C40.6829 54.9496 40.3471 54.9902 40.1814 55.0378C39.6637 55.1868 39.1965 55.4334 38.7798 55.7775C38.3839 56.1157 38.2365 56.4608 38.3378 56.8128C38.457 57.227 38.9 57.4807 39.6668 57.574C40.1612 57.6559 40.6881 57.6949 41.2475 57.6908C41.8277 57.6809 42.1858 57.6787 42.322 57.6844C42.6298 57.6631 43.0442 57.7008 43.5653 57.7974C44.1072 57.8882 44.5395 57.988 44.8623 58.0969ZM54.3554 62.7646C53.9413 62.8838 53.5684 62.9126 53.2368 62.8511C52.9051 62.7896 52.6844 62.6849 52.5746 62.5371C52.1085 61.7743 51.6817 60.72 51.2944 59.3739C50.5793 56.889 50.0398 54.8581 49.6757 53.2811C49.2282 51.4143 48.7601 49.6319 48.2715 47.9338C48.1285 47.4368 47.8578 46.7299 47.4594 45.8131C47.391 45.6534 47.2736 45.3621 47.107 44.9392C46.9405 44.5162 46.8035 44.1184 46.6963 43.7456C46.5652 43.2901 46.6162 42.883 46.8494 42.5244C47.1032 42.1598 47.489 41.9031 48.0067 41.7541C48.4209 41.6349 48.7909 41.6742 49.1169 41.8719C49.4576 42.0429 49.6905 42.3459 49.8157 42.7807C50.0063 43.4434 50.2952 44.3693 50.6822 45.5584C51.0454 46.6647 51.3075 47.4974 51.4684 48.0565C51.6471 48.6778 51.8648 49.512 52.1213 50.5594C52.2587 51.1925 52.369 51.654 52.4525 51.944C52.7147 52.8551 52.9425 53.608 53.136 54.2025C53.6817 53.2159 54.4269 52.0261 55.3714 50.6331C56.3159 49.2402 57.0703 48.2383 57.6344 47.6275C58.2341 46.9841 58.6478 46.6296 58.8756 46.5641C59.3104 46.4389 59.71 46.4249 60.0742 46.5218C60.4385 46.6188 60.6713 46.8433 60.7726 47.1954C60.8739 47.5474 60.9026 47.8419 60.8586 48.0787C60.8147 48.3156 60.6879 48.5763 60.4783 48.8609L57.7102 52.449C58.1039 52.4927 58.5276 52.7183 58.9812 53.1259C59.4556 53.5276 60.0427 54.0873 60.7426 54.8053C61.5403 55.6296 62.1734 56.2322 62.6418 56.6131C63.1309 56.9881 63.5514 57.1249 63.9035 57.0236L64.6711 56.7691C64.816 56.7274 64.9641 56.7745 65.1153 56.9103C65.2872 57.0403 65.4179 57.2605 65.5073 57.5711C65.6443 58.0474 65.5164 58.499 65.1236 58.926C64.7514 59.347 64.2754 59.6409 63.6956 59.8078C62.888 60.0402 62.0842 59.9351 61.2842 59.4927C60.4783 59.0295 59.6408 58.34 58.7718 57.424L57.6952 56.254C57.2384 55.7576 56.8914 55.409 56.6543 55.2081C56.4378 55.0014 56.2141 54.8863 55.9832 54.8631L54.0703 57.5661L55.1688 60.9161C55.3238 61.4545 55.2891 61.8793 55.0647 62.1905C54.861 62.4958 54.6246 62.6871 54.3554 62.7646ZM73.8682 48.1021C74.8208 47.828 75.452 48.2293 75.7619 49.3061C75.9228 49.8652 75.8422 50.3256 75.5203 50.6873C75.2191 51.0431 74.7889 51.3014 74.2298 51.4623C74.0641 51.51 73.8851 51.5503 73.6928 51.5832C73.5005 51.6161 73.2978 51.652 73.0847 51.6909C72.4337 51.7661 71.8597 51.8753 71.3627 52.0183C71.0107 52.1196 70.4945 52.3129 69.8143 52.5984C69.0927 52.8957 68.5351 53.101 68.1417 53.2142C67.5826 53.3751 67.0558 53.4146 66.5613 53.3327C66.0609 53.23 65.7362 52.9198 65.5872 52.4021C65.3787 51.6774 65.5138 51.134 65.9926 50.772C66.4655 50.3892 67.1885 50.0579 68.1618 49.7778L69.1958 49.5139C69.7047 49.4123 70.0937 49.3227 70.3629 49.2453L72.6126 48.5307L73.8682 48.1021ZM92.6648 43.6012C92.658 43.1099 92.6138 42.4499 92.5323 41.6213C92.4713 40.6299 92.4343 39.8782 92.4215 39.3661C92.4087 38.8541 92.4582 38.4026 92.5699 38.0117C92.6904 37.5734 92.8157 37.2683 92.9456 37.0964C93.0962 36.9185 93.275 36.7998 93.4821 36.7402C94.5589 36.4303 95.2165 36.6895 95.4549 37.5179C95.574 37.932 95.6318 38.7562 95.6282 39.9905C95.4842 43.6196 95.4362 46.4138 95.4843 48.3731C95.4977 49.1989 95.3569 49.8785 95.0619 50.4118C94.761 50.9244 94.2585 51.2821 93.5544 51.4847C93.2024 51.586 92.7923 51.5246 92.3242 51.3005C91.8709 51.0498 91.4588 50.7087 91.088 50.2773L90.505 49.5369C89.5021 48.2335 88.7425 47.2301 88.2261 46.5266C87.7245 45.7964 87.3399 45.1223 87.0724 44.5042L87.0789 45.5786C87.0943 47.5025 87.0534 49.3081 86.9559 50.9954C86.9131 51.8598 86.7457 52.5246 86.4535 52.9899C86.1554 53.4344 85.6958 53.7461 85.0745 53.9248C84.7018 54.0321 84.3466 54.0446 84.0091 53.9624C83.6922 53.8742 83.3529 53.6691 82.9912 53.3472C82.5049 52.9041 81.9754 52.2717 81.4026 51.4499C80.8505 50.6222 80.0178 49.3259 78.9045 47.5609C78.3969 46.8101 77.8982 46.0119 77.4082 45.1663C76.9122 44.3 76.6106 43.6804 76.5034 43.3077C76.3782 42.8728 76.3938 42.4984 76.5501 42.1843C76.7064 41.8703 77.0019 41.6507 77.4368 41.5256C77.9959 41.3647 78.4221 41.3654 78.7155 41.5276C79.0028 41.6691 79.3023 41.9305 79.6138 42.3117C79.9319 43.0274 80.4636 44.018 81.2089 45.2834L82.7324 48.0066C82.8394 48.2224 83.1007 48.663 83.5163 49.3281L84.0241 50.1574C84.1996 49.0531 84.3145 48.011 84.3689 47.0311C84.4233 46.0513 84.4491 44.8555 84.4465 43.4436C84.4433 43.3548 84.4448 42.5808 84.4509 41.1216C84.595 40.6093 84.7408 40.2198 84.8883 39.9531C85.0298 39.6657 85.2041 39.4922 85.4112 39.4327C85.8253 39.3135 86.2161 39.3468 86.5835 39.5326C86.9656 39.6917 87.2828 39.9367 87.535 40.2678C88.0159 41.0039 88.4449 41.6764 88.8219 42.2854C88.9822 42.5308 89.3563 43.1295 89.9441 44.0814C90.5468 45.0067 91.0736 45.7857 91.5247 46.4182C91.9758 47.0508 92.3259 47.4882 92.575 47.7304L92.6648 43.6012ZM97.43 28.6419C98.1726 28.4955 98.8608 28.5105 99.4946 28.6869C100.122 28.8425 100.529 29.2414 100.713 29.8833C100.85 30.3596 100.733 30.8082 100.361 31.2292C100.003 31.6236 99.514 31.9101 98.8928 32.0889C98.2922 32.2617 97.8334 32.2256 97.5162 31.9805C97.199 31.7354 96.9928 31.4472 96.8974 31.1159C96.7187 30.4947 96.6318 29.9591 96.6369 29.5092C96.6627 29.0533 96.927 28.7642 97.43 28.6419ZM103.875 41.6872L104.134 42.588C104.366 43.3956 104.607 44.1558 104.857 44.8687C105.122 45.5549 105.4 46.2485 105.692 46.9494C105.763 47.1979 105.684 47.4674 105.453 47.7579C105.217 48.0277 104.975 48.1983 104.726 48.2698C104.333 48.3831 103.908 48.4268 103.452 48.401C103.011 48.3486 102.716 48.2204 102.568 48.0164C102.253 47.3895 102.021 46.8172 101.872 46.2995C101.383 44.6015 100.783 42.7113 100.072 40.6289C99.453 38.789 99.0362 37.4963 98.8217 36.7508C98.7144 36.3781 98.8084 36.0035 99.1037 35.627C99.399 35.2506 99.7537 35.0027 100.168 34.8836C100.768 34.7107 101.221 34.7262 101.527 34.9298C101.852 35.1275 102.099 35.5163 102.266 36.0961L103.875 41.6872ZM116.298 37.5404C116.494 37.5962 116.871 37.7006 117.431 37.8535C118.006 37.9797 118.429 38.2053 118.702 38.5304C118.975 38.8554 119.207 39.3493 119.398 40.0119C119.612 40.7574 119.585 41.4826 119.317 42.1876C119.043 42.8718 118.609 43.4676 118.015 43.9749C117.599 44.319 117.117 44.5922 116.57 44.7945C116.043 44.9909 115.397 45.1993 114.631 45.4198C114.216 45.5389 113.66 45.6317 112.962 45.6982C112.284 45.7587 111.806 45.7729 111.528 45.7409C110.758 45.5588 110.074 45.2848 109.475 44.9189C108.876 44.553 108.503 44.1112 108.354 43.5936C108.234 43.1794 108.274 42.8093 108.471 42.4834C108.669 42.1574 108.985 41.9319 109.42 41.8067C109.648 41.7412 109.883 41.7407 110.126 41.8054C110.384 41.8434 110.575 41.9229 110.699 42.0441C111.082 42.5169 111.581 42.8105 112.197 42.9247C112.813 43.039 113.401 43.0157 113.96 42.8548C115.927 42.2887 116.809 41.6536 116.607 40.9496C116.553 40.7632 116.46 40.6331 116.326 40.5594C116.208 40.459 116.048 40.3705 115.846 40.2939C115.523 40.185 115.084 40.0985 114.527 40.0345C113.991 39.9644 113.522 39.9313 113.12 39.935C112.217 39.993 111.308 39.9518 110.393 39.8114C109.54 39.6532 108.79 39.3423 108.14 38.8789C107.485 38.3947 107.03 37.7074 106.774 36.8169C106.619 36.2785 106.663 35.6939 106.908 35.063C107.167 34.4054 107.527 33.8645 107.988 33.4404C108.319 33.1882 108.885 32.8571 109.687 32.4471C110.488 32.0371 111.044 31.7874 111.355 31.6981C111.831 31.561 112.364 31.4638 112.952 31.4065C113.535 31.3284 114.002 31.3512 114.351 31.4748C115.006 31.6453 115.562 31.8662 116.022 32.1377C116.475 32.3884 116.767 32.7415 116.898 33.1971C116.964 33.4249 116.984 33.6883 116.958 33.9873C116.926 34.2656 116.846 34.4566 116.719 34.5605C116.45 34.7948 116.108 34.9716 115.694 35.0907C115.508 35.1444 115.338 35.1373 115.184 35.0695C115.05 34.9958 114.858 34.8718 114.606 34.6977C114.277 34.4112 114 34.2667 113.775 34.2641C113.508 34.2735 113.125 34.3053 112.625 34.3595C112.119 34.3931 111.783 34.4337 111.617 34.4813C111.1 34.6303 110.633 34.8769 110.216 35.221C109.82 35.5592 109.673 35.9043 109.774 36.2563C109.893 36.6705 110.336 36.9242 111.103 37.0174C111.597 37.0994 112.124 37.1383 112.684 37.1343C113.264 37.1243 113.622 37.1222 113.758 37.1278C114.066 37.1065 114.48 37.1442 115.001 37.2409C115.543 37.3317 115.975 37.4315 116.298 37.5404ZM121.095 35.8236C120.881 35.0782 120.816 34.3457 120.9 33.6263C120.979 32.8862 121.176 32.0896 121.491 31.2366C121.806 30.3835 122.362 29.6292 123.16 28.9735C123.952 28.2972 124.887 27.8041 125.963 27.4942C126.792 27.2559 127.64 27.2025 128.507 27.334C129.389 27.4389 130.213 27.6505 130.977 27.9687C131.101 28.0898 131.324 28.3173 131.644 28.6512C131.958 28.9643 132.202 29.2643 132.374 29.5511C132.567 29.8319 132.711 30.138 132.806 30.4693C133.206 31.8567 132.966 32.9346 132.089 33.7028C131.205 34.4504 129.987 35.0476 128.434 35.4945C126.881 35.9415 125.588 36.2014 124.555 36.2744C124.709 36.6559 124.926 37.0196 125.205 37.3654C125.484 37.7111 125.767 37.9548 126.054 38.0963C126.582 38.3706 127.06 38.5132 127.489 38.5243C127.933 38.5086 128.497 38.4025 129.18 38.2058C130.216 37.9079 130.967 37.4788 131.433 36.9185C131.87 36.4115 132.234 36.1163 132.524 36.0329C132.917 35.9197 133.253 35.9575 133.532 36.1464C133.804 36.3146 133.994 36.5851 134.102 36.9578C134.328 37.7447 134.006 38.5327 133.134 39.3216C132.283 40.1047 131.226 40.6779 129.963 41.0414C128.969 41.3274 127.934 41.4345 126.86 41.3625C125.785 41.2905 124.866 41.017 124.101 40.5419C123.517 39.9925 122.933 39.2862 122.348 38.423C121.763 37.5598 121.346 36.6934 121.095 35.8236ZM126.821 30.0055C126.365 30.1366 125.913 30.3565 125.463 30.6652C125.029 30.9472 124.721 31.2823 124.542 31.6703C124.312 32.1177 124.156 32.5102 124.073 32.8478C124.012 33.1794 124.023 33.5686 124.107 34.0154C124.334 33.9498 124.555 33.8976 124.768 33.8587C124.981 33.8199 125.184 33.784 125.376 33.751C126.311 33.5717 127.006 33.4164 127.462 33.2853C128.373 33.0232 129.028 32.6889 129.427 32.2827C129.846 31.8705 129.99 31.4366 129.859 30.981C129.734 30.5461 129.341 30.2331 128.681 30.042C128.041 29.8449 127.421 29.8327 126.821 30.0055Z" fill="black"/>
<defs>
<linearGradient id="paint0_linear_2134_24" x1="81.4811" y1="6.23102e-07" x2="81.4811" y2="77.7905" gradientUnits="userSpaceOnUse">
<stop offset="0.139423"/>
<stop offset="0.355769" stop-color="#030303"/>
<stop offset="0.557692" stop-color="#0E0E0E"/>
<stop offset="0.730769" stop-color="#424242"/>
<stop offset="0.9375" stop-color="#666666"/>
</linearGradient>
</defs>
</svg>
