<svg width="26" height="27" viewBox="0 0 26 27" fill="none" xmlns="http://www.w3.org/2000/svg">
<path d="M12.8184 0.5C19.5992 0.500102 25.1367 6.27229 25.1367 13.4434C25.1367 20.6145 19.5992 26.3866 12.8184 26.3867C6.03739 26.3867 0.5 20.6145 0.5 13.4434C0.500051 6.27222 6.03742 0.5 12.8184 0.5Z" fill="#FCB99F" fill-opacity="0.85" stroke="url(#paint0_linear_2139_164)"/>
<path d="M9.04492 11.1436C10.8765 7.55212 16.058 7.70043 17.6816 11.3906L18.377 12.9707C18.6411 13.5709 19.1629 14.02 19.7959 14.1914C20.7845 14.4594 20.975 15.7788 20.1025 16.3154L19.1016 16.9307C18.157 17.5112 16.9189 17.0313 16.6123 15.9658L16.4844 15.5205C15.6517 12.6268 11.5646 12.5882 10.6777 15.4658L10.4893 16.0781C10.1568 17.1563 8.93299 17.6755 7.92676 17.165L6.36133 16.3701C5.37578 15.8701 5.554 14.4115 6.63086 14.1631C7.18065 14.0361 7.6572 13.7027 7.96387 13.2363L8.08398 13.0283L9.04492 11.1436Z" fill="#D9D9D9" stroke="black"/>
<defs>
<linearGradient id="paint0_linear_2139_164" x1="12.8182" y1="0" x2="12.8182" y2="26.8869" gradientUnits="userSpaceOnUse">
<stop/>
<stop offset="0.298077" stop-color="#1C1C1C"/>
<stop offset="0.822115" stop-color="#252525"/>
<stop offset="0.9999" stop-color="#424242"/>
<stop offset="1" stop-color="#666666"/>
</linearGradient>
</defs>
</svg>
