<svg width="44" height="44" viewBox="0 0 44 44" fill="none" xmlns="http://www.w3.org/2000/svg">
<rect width="44" height="44" fill="#1E1E1E"/>
<path d="M44 22C44 34.1503 34.1503 44 22 44C9.84974 44 0 34.1503 0 22C0 9.84974 9.84974 0 22 0C34.1503 0 44 9.84974 44 22ZM3.86177 22C3.86177 32.0175 11.9825 40.1382 22 40.1382C32.0175 40.1382 40.1382 32.0175 40.1382 22C40.1382 11.9825 32.0175 3.86177 22 3.86177C11.9825 3.86177 3.86177 11.9825 3.86177 22Z" fill="#3E9FD3"/>
<path d="M10.4334 20.4815C34.0143 26.155 9.60989 -8.39412 21.2105 4.33062C32.8112 17.0554 54.6911 20.9811 37.7652 22.9226C20.8392 24.864 21.9842 48.5 18.9867 39.6176C15.9891 30.7353 -13.1475 14.8079 10.4334 20.4815Z" fill="#3E9FD3"/>
<path d="M9.34495 25.3279C9.2715 25.3337 9.2062 25.3164 9.14904 25.2758C9.09696 25.2341 9.06294 25.1777 9.04696 25.1065C9.03898 25.0709 9.03805 25.0311 9.04417 24.987C9.05537 24.9418 9.07535 24.8999 9.10408 24.8614C9.15534 24.7805 9.32584 24.7075 9.61559 24.6425C9.61176 24.4351 9.58703 24.2297 9.54139 24.0264C9.52428 23.9502 9.5069 23.8847 9.48927 23.8299C9.47164 23.7751 9.4594 23.7325 9.45255 23.702C9.42745 23.5901 9.44929 23.4971 9.51808 23.423C9.59194 23.3476 9.68225 23.298 9.789 23.274C9.92117 23.2444 10.0175 23.2575 10.0781 23.3133C10.1438 23.3679 10.1966 23.4842 10.2365 23.6622C10.2959 23.9265 10.3312 24.1909 10.3425 24.4553C10.4238 24.4371 10.5345 24.4069 10.6745 24.3648C10.8654 24.3112 11.0041 24.2748 11.0905 24.2554C11.1769 24.236 11.2558 24.2423 11.327 24.2744C11.4022 24.3002 11.4484 24.3513 11.4655 24.4275C11.51 24.6258 11.4473 24.7626 11.2774 24.8382C11.0995 24.9261 10.8135 25.0197 10.4193 25.1188C10.4485 25.3205 10.4894 25.5383 10.5419 25.7721C10.624 26.1381 10.7142 26.4329 10.8125 26.6565C10.8795 26.8123 10.9571 26.9203 11.0454 26.9806C11.1376 27.0347 11.2574 27.0451 11.4049 27.0121C11.4913 26.9927 11.5751 26.9498 11.6563 26.8835C11.7093 26.8343 11.7613 26.8039 11.8121 26.7925C11.8833 26.7765 11.9392 26.788 11.98 26.8269C12.0259 26.8647 12.0573 26.9217 12.0745 26.9979C12.1064 27.1403 12.057 27.2768 11.9261 27.4076C11.7942 27.5334 11.6087 27.623 11.3698 27.6767C11.2224 27.7098 11.0645 27.7078 10.896 27.6709C10.7326 27.6328 10.5881 27.5718 10.4625 27.4879C10.4438 27.476 10.4027 27.4239 10.3392 27.3313C10.2757 27.2388 10.2156 27.1375 10.1589 27.0274C10.0544 26.7999 9.9537 26.4701 9.85672 26.038C9.81451 25.8499 9.7682 25.596 9.7178 25.2763L9.34495 25.3279ZM16.1912 26.1781C16.2163 26.2899 16.1764 26.3976 16.0715 26.5013C15.9717 26.6038 15.8709 26.6664 15.7693 26.6892C15.5761 26.7326 15.4159 26.7445 15.2888 26.725C15.1655 26.6993 15.0408 26.6312 14.9145 26.5207C14.8086 26.6673 14.6481 26.7967 14.433 26.9091C14.2168 27.0163 14.0122 27.0916 13.819 27.135C13.5038 27.2057 13.2257 27.18 12.9848 27.0579C12.7426 26.9307 12.5845 26.7019 12.5103 26.3715C12.4784 26.2292 12.4874 26.091 12.5374 25.9569C12.5863 25.8178 12.6665 25.6877 12.7782 25.5665C12.9039 25.4369 13.0551 25.3255 13.2318 25.2325C13.4073 25.1343 13.5968 25.0624 13.8001 25.0168C13.9068 24.9928 14.0385 24.9847 14.195 24.9922C14.3516 24.9998 14.4757 25.0174 14.5673 25.0448L14.5399 24.9228C14.4783 24.6483 14.37 24.4751 14.215 24.4031C14.0589 24.326 13.8334 24.3205 13.5385 24.3867C13.4521 24.4061 13.3697 24.4433 13.2913 24.4983C13.2179 24.5521 13.1347 24.6215 13.0417 24.7065C12.9164 24.8147 12.7903 24.883 12.6632 24.9116C12.6175 24.9218 12.5674 24.901 12.513 24.8492C12.4575 24.7922 12.4241 24.7383 12.4127 24.6875C12.3796 24.54 12.4197 24.3976 12.533 24.26C12.6514 24.1213 12.8014 24.0049 12.9832 23.9107C13.1638 23.8114 13.3304 23.7447 13.4829 23.7104C13.6354 23.6762 13.8176 23.6673 14.0295 23.6838C14.2403 23.6953 14.4207 23.7375 14.5706 23.8107C14.7527 23.9086 14.9045 24.0374 15.0257 24.1971C15.1509 24.3505 15.2369 24.5315 15.2837 24.7399C15.2985 24.806 15.3157 24.9062 15.3352 25.0407C15.357 25.1853 15.3793 25.3084 15.4021 25.4101C15.4124 25.4559 15.4227 25.5256 15.4331 25.6194C15.448 25.7335 15.4629 25.8236 15.4777 25.8897C15.4914 25.9507 15.5262 25.9989 15.5823 26.0344C15.6371 26.0648 15.6951 26.0732 15.7561 26.0595L15.9679 26.0039C16.0238 25.9914 16.0716 26.002 16.1112 26.0358C16.1508 26.0697 16.1775 26.1171 16.1912 26.1781ZM13.6914 26.5309C13.91 26.4818 14.0879 26.4179 14.225 26.3391C14.3622 26.2602 14.5213 26.1364 14.7023 25.9676C14.7032 25.8766 14.6903 25.7594 14.6634 25.6159C14.3542 25.5465 14.108 25.5324 13.925 25.5734C13.7166 25.6202 13.5396 25.7 13.3941 25.8127C13.2485 25.9255 13.1974 26.0785 13.2408 26.2716C13.2624 26.3682 13.3214 26.4404 13.4175 26.4882C13.5137 26.5361 13.605 26.5503 13.6914 26.5309ZM18.5456 24.3041C18.592 24.3204 18.6816 24.351 18.8145 24.3959C18.9513 24.4346 19.0504 24.4952 19.1116 24.5775C19.1728 24.6599 19.2216 24.7824 19.2581 24.9451C19.2992 25.1281 19.2823 25.3028 19.2075 25.469C19.1316 25.6303 19.0183 25.7678 18.8677 25.8817C18.7621 25.9588 18.6419 26.0178 18.5069 26.0588C18.3771 26.0986 18.2181 26.1396 18.03 26.1818C17.9283 26.2047 17.7927 26.2191 17.6232 26.2251C17.4588 26.23 17.3432 26.2265 17.2765 26.2148C17.0933 26.1598 16.9321 26.0839 16.7929 25.987C16.6537 25.8901 16.5698 25.7781 16.5413 25.651C16.5185 25.5493 16.5332 25.4606 16.5856 25.3847C16.638 25.3089 16.7176 25.259 16.8243 25.2351C16.8803 25.2225 16.9371 25.2258 16.9947 25.2449C17.0564 25.2577 17.1013 25.2797 17.1297 25.3107C17.2152 25.4303 17.3315 25.5083 17.4785 25.5447C17.6255 25.5812 17.7677 25.584 17.9049 25.5532C18.3878 25.4448 18.6099 25.3042 18.5711 25.1313C18.5608 25.0856 18.5401 25.0529 18.509 25.0331C18.4818 25.0072 18.4445 24.9836 18.397 24.9622C18.3206 24.9313 18.2157 24.9041 18.0823 24.8806C17.954 24.856 17.8412 24.8413 17.744 24.8364C17.5253 24.8374 17.3066 24.8145 17.0878 24.7675C16.8843 24.717 16.7075 24.6312 16.5575 24.51C16.4064 24.3838 16.3063 24.2114 16.2572 23.9928C16.2275 23.8606 16.2467 23.7202 16.3148 23.5714C16.3868 23.4164 16.4815 23.291 16.5988 23.1953C16.6823 23.1392 16.8237 23.0674 17.023 22.9799C17.2223 22.8925 17.3601 22.8402 17.4363 22.8231C17.5532 22.7969 17.6832 22.781 17.8261 22.7757C17.9679 22.7652 18.0801 22.7774 18.1627 22.8122C18.3182 22.8628 18.4495 22.9241 18.5564 22.9962C18.6622 23.0632 18.7277 23.1526 18.7528 23.2645C18.7653 23.3204 18.7663 23.3842 18.7557 23.456C18.744 23.5227 18.7221 23.5677 18.6899 23.5909C18.6216 23.6436 18.5367 23.6814 18.435 23.7042C18.3892 23.7145 18.3483 23.7103 18.3121 23.6918C18.2809 23.6721 18.2362 23.6394 18.1779 23.5937C18.1026 23.5199 18.0378 23.481 17.9836 23.4772C17.9192 23.4756 17.8262 23.4778 17.7047 23.4837C17.5821 23.4845 17.5005 23.4895 17.4598 23.4986C17.3327 23.5271 17.2164 23.5799 17.1109 23.657C17.0105 23.7329 16.97 23.8141 16.9894 23.9005C17.0122 24.0022 17.1154 24.0698 17.2992 24.1033C17.4173 24.1302 17.5439 24.1472 17.679 24.1542C17.8192 24.1601 17.9056 24.1648 17.9384 24.1681C18.013 24.1674 18.1125 24.1824 18.2369 24.2132C18.3663 24.2429 18.4693 24.2732 18.5456 24.3041ZM20.7698 25.5669C20.6681 25.5897 20.5777 25.5913 20.4985 25.5717C20.4194 25.5521 20.3676 25.5237 20.3432 25.4865C20.2417 25.2957 20.1538 25.0351 20.0797 24.7047C19.9427 24.0947 19.8417 23.5967 19.7764 23.2109C19.6952 22.7539 19.6078 22.317 19.5143 21.9002C19.4869 21.7782 19.4317 21.6037 19.3487 21.3767C19.3345 21.3372 19.3104 21.2652 19.2762 21.1607C19.2421 21.0563 19.2148 20.9583 19.1942 20.8668C19.1691 20.7549 19.1873 20.6574 19.2487 20.5742C19.3152 20.4899 19.412 20.4335 19.5391 20.4049C19.6408 20.3821 19.7295 20.3969 19.8053 20.4493C19.8851 20.4955 19.937 20.5719 19.961 20.6787C19.9975 20.8413 20.0539 21.0689 20.1302 21.3615C20.202 21.6337 20.2533 21.8385 20.2841 21.9757C20.3183 22.1282 20.3589 22.3327 20.4058 22.5891C20.4298 22.7439 20.4498 22.8569 20.4658 22.9281C20.516 23.1517 20.5602 23.3367 20.5984 23.483C20.7442 23.2527 20.9411 22.9762 21.1891 22.6536C21.4371 22.331 21.6335 22.1 21.7784 21.9607C21.9324 21.814 22.0373 21.7344 22.0932 21.7218C22.2 21.6979 22.2966 21.7002 22.3831 21.7288C22.4697 21.7575 22.5226 21.815 22.542 21.9014C22.5614 21.9878 22.5641 22.0593 22.5501 22.1159C22.5361 22.1724 22.5018 22.2335 22.4471 22.2992L21.7275 23.1254C21.8219 23.1416 21.9209 23.2022 22.0245 23.307C22.1333 23.4108 22.2669 23.5543 22.4255 23.7376C22.6062 23.948 22.7504 24.1026 22.858 24.2012C22.9706 24.2987 23.0702 24.3378 23.1566 24.3184L23.3455 24.268C23.3811 24.26 23.4161 24.2735 23.4507 24.3085C23.4903 24.3423 23.5187 24.3973 23.5358 24.4736C23.562 24.5905 23.5247 24.6976 23.4237 24.7951C23.3279 24.8913 23.2088 24.9554 23.0664 24.9874C22.8682 25.0319 22.6757 24.995 22.489 24.8767C22.3011 24.7534 22.1089 24.5749 21.9123 24.3414L21.6693 24.0435C21.5661 23.9172 21.4874 23.8281 21.4331 23.7762C21.3838 23.7232 21.3314 23.6922 21.276 23.6833L20.7756 24.3082L20.9926 25.1325C21.0223 25.2646 21.0078 25.3667 20.9492 25.4386C20.8956 25.5093 20.8358 25.5521 20.7698 25.5669ZM25.6896 22.3082C25.9235 22.2558 26.07 22.3617 26.1294 22.626C26.1602 22.7633 26.1341 22.8732 26.0512 22.9559C25.9734 23.0374 25.8659 23.0936 25.7286 23.1244C25.688 23.1335 25.6442 23.1407 25.5973 23.1459C25.5504 23.1511 25.501 23.1568 25.449 23.1632C25.2908 23.172 25.1507 23.1901 25.0287 23.2174C24.9423 23.2368 24.8149 23.2761 24.6467 23.3352C24.4682 23.3966 24.3307 23.4382 24.2341 23.4599C24.0969 23.4907 23.9692 23.4926 23.851 23.4657C23.7317 23.4338 23.6578 23.3543 23.6293 23.2272C23.5894 23.0493 23.6298 22.9201 23.7505 22.8396C23.8701 22.754 24.0494 22.6844 24.2883 22.6308L24.5417 22.5819C24.666 22.5647 24.7611 22.5487 24.8272 22.5338L25.3804 22.3937L25.6896 22.3082ZM30.2908 21.4918C30.2962 21.3731 30.295 21.2132 30.2872 21.012C30.2867 20.7719 30.2886 20.5899 30.2928 20.4662C30.2971 20.3424 30.3155 20.2341 30.3481 20.1414C30.3835 20.0373 30.4181 19.9655 30.4519 19.9259C30.4908 19.8851 30.5357 19.859 30.5865 19.8476C30.8509 19.7883 31.0058 19.8603 31.0515 20.0636C31.0743 20.1653 31.0764 20.365 31.0578 20.6629C30.971 21.5367 30.9193 22.2104 30.9027 22.684C30.8941 22.8835 30.8504 23.0454 30.7715 23.1699C30.6916 23.2893 30.5651 23.3684 30.3923 23.4072C30.3059 23.4266 30.2078 23.4059 30.098 23.3451C29.9922 23.2781 29.8977 23.1899 29.8144 23.0804L29.6843 22.8934C29.461 22.5644 29.292 22.3113 29.1775 22.1341C29.0669 21.9507 28.9838 21.7825 28.9281 21.6294L28.9142 21.8888C28.8903 22.3534 28.8545 22.7886 28.8068 23.1944C28.7841 23.4024 28.7341 23.5605 28.6569 23.6686C28.5786 23.7716 28.4632 23.8402 28.3107 23.8744C28.2192 23.895 28.1333 23.8929 28.053 23.8682C27.9778 23.8424 27.8988 23.788 27.8161 23.7051C27.7052 23.5912 27.5864 23.431 27.46 23.2244C27.3386 23.0167 27.1562 22.6919 26.9129 22.2499C26.8012 22.0614 26.6923 21.8616 26.5861 21.6505C26.4789 21.4343 26.415 21.2805 26.3944 21.189C26.3705 21.0822 26.3796 20.9921 26.4218 20.9185C26.4641 20.845 26.5386 20.7962 26.6453 20.7722C26.7826 20.7414 26.8854 20.7477 26.9539 20.7911C27.0212 20.8294 27.0897 20.8967 27.1594 20.9932C27.2259 21.1705 27.34 21.4172 27.5017 21.7333L27.8304 22.4124C27.8531 22.4661 27.9098 22.5761 28.0006 22.7426L28.1112 22.9501C28.1694 22.6861 28.2121 22.4362 28.2393 22.2005C28.2665 21.9648 28.2899 21.6766 28.3095 21.3358C28.3101 21.3143 28.3215 21.1275 28.344 20.7754C28.3861 20.6538 28.4269 20.5619 28.4663 20.4997C28.5046 20.4324 28.5491 20.393 28.6 20.3816C28.7016 20.3588 28.7955 20.3724 28.8815 20.4225C28.9714 20.4664 29.0444 20.5301 29.1005 20.6136C29.206 20.7982 29.2999 20.9667 29.3822 21.1191C29.4173 21.1806 29.499 21.3304 29.6272 21.5686C29.7594 21.8006 29.8754 21.9962 29.9752 22.1553C30.075 22.3144 30.1532 22.425 30.2098 22.4871L30.2908 21.4918ZM31.6556 17.9498C31.8369 17.9251 32.0028 17.9386 32.1532 17.9903C32.3025 18.0368 32.3948 18.1389 32.4302 18.2965C32.4564 18.4134 32.4216 18.52 32.3258 18.6163C32.2338 18.7063 32.1116 18.7685 31.9591 18.8027C31.8117 18.8358 31.7015 18.8205 31.6285 18.7568C31.5554 18.6931 31.5098 18.6206 31.4915 18.5392C31.4573 18.3867 31.444 18.2562 31.4517 18.1477C31.4645 18.0381 31.5324 17.9721 31.6556 17.9498ZM33.0237 21.1908L33.0734 21.4119C33.1179 21.6101 33.1651 21.7971 33.2152 21.9727C33.2693 22.1421 33.3264 22.3135 33.3867 22.4869C33.4004 22.5479 33.3774 22.6118 33.3176 22.6786C33.2567 22.7403 33.1958 22.778 33.1348 22.7917C33.0382 22.8134 32.9351 22.8178 32.8254 22.8051C32.7197 22.7861 32.6504 22.7509 32.6175 22.6995C32.5505 22.5437 32.5027 22.4023 32.4742 22.2752C32.3807 21.8584 32.263 21.3935 32.1212 20.8807C31.9982 20.4278 31.9161 20.1098 31.8751 19.9268C31.8545 19.8353 31.8826 19.7463 31.9593 19.6597C32.0359 19.573 32.1251 19.5183 32.2268 19.4955C32.3742 19.4624 32.4833 19.4726 32.554 19.5262C32.6298 19.5786 32.6837 19.6759 32.7157 19.8183L33.0237 21.1908ZM36.0817 20.3683C36.1281 20.3846 36.2177 20.4152 36.3506 20.4601C36.4874 20.4988 36.5864 20.5593 36.6476 20.6417C36.7088 20.7241 36.7577 20.8466 36.7942 21.0093C36.8353 21.1923 36.8184 21.3669 36.7436 21.5332C36.6677 21.6944 36.5544 21.832 36.4037 21.9459C36.2982 22.0229 36.178 22.082 36.043 22.1229C35.9131 22.1628 35.7542 22.2038 35.5661 22.246C35.4644 22.2688 35.3288 22.2832 35.1593 22.2892C34.9949 22.2941 34.8793 22.2907 34.8126 22.279C34.6294 22.224 34.4682 22.148 34.329 22.0511C34.1898 21.9542 34.1059 21.8422 34.0774 21.7151C34.0545 21.6135 34.0693 21.5247 34.1217 21.4489C34.1741 21.3731 34.2537 21.3232 34.3604 21.2992C34.4164 21.2867 34.4732 21.2899 34.5308 21.309C34.5925 21.3219 34.6374 21.3438 34.6657 21.3748C34.7513 21.4945 34.8676 21.5725 35.0146 21.6089C35.1616 21.6453 35.3037 21.6481 35.441 21.6173C35.9239 21.5089 36.146 21.3683 36.1072 21.1955C36.0969 21.1497 36.0762 21.117 36.0451 21.0973C36.0179 21.0714 35.9806 21.0477 35.9331 21.0263C35.8567 20.9954 35.7518 20.9682 35.6184 20.9448C35.4901 20.9202 35.3773 20.9055 35.2801 20.9006C35.0614 20.9016 34.8427 20.8786 34.6239 20.8316C34.4204 20.7812 34.2436 20.6954 34.0936 20.5742C33.9425 20.4479 33.8424 20.2755 33.7933 20.0569C33.7636 19.9248 33.7828 19.7843 33.8509 19.6355C33.9229 19.4806 34.0176 19.3552 34.1349 19.2594C34.2184 19.2033 34.3598 19.1315 34.5591 19.0441C34.7584 18.9567 34.8962 18.9044 34.9724 18.8873C35.0893 18.861 35.2193 18.8452 35.3622 18.8398C35.504 18.8293 35.6162 18.8415 35.6988 18.8764C35.8543 18.9269 35.9855 18.9882 36.0925 19.0604C36.1983 19.1274 36.2638 19.2168 36.2889 19.3286C36.3014 19.3846 36.3024 19.4484 36.2918 19.5202C36.2801 19.5869 36.2581 19.6319 36.226 19.6551C36.1577 19.7078 36.0728 19.7456 35.9711 19.7684C35.9253 19.7786 35.8844 19.7745 35.8482 19.7559C35.817 19.7362 35.7723 19.7035 35.714 19.6579C35.6387 19.584 35.5739 19.5452 35.5197 19.5413C35.4552 19.5398 35.3623 19.5419 35.2408 19.5478C35.1182 19.5487 35.0365 19.5536 34.9959 19.5628C34.8688 19.5913 34.7525 19.6441 34.647 19.7212C34.5466 19.7971 34.5061 19.8783 34.5254 19.9647C34.5483 20.0664 34.6515 20.134 34.8353 20.1675C34.9534 20.1943 35.08 20.2113 35.2151 20.2184C35.3553 20.2243 35.4417 20.2289 35.4745 20.2322C35.5491 20.2315 35.6486 20.2466 35.773 20.2774C35.9024 20.307 36.0053 20.3373 36.0817 20.3683ZM37.2641 20.0228C37.223 19.8398 37.2178 19.6621 37.2486 19.4897C37.2781 19.3122 37.3371 19.1227 37.4254 18.9214C37.5137 18.72 37.6588 18.546 37.8608 18.3992C38.0616 18.2473 38.2942 18.1417 38.5586 18.0824C38.7619 18.0367 38.9673 18.036 39.1748 18.0802C39.3862 18.1182 39.5819 18.1811 39.7617 18.2689C39.7901 18.2999 39.8405 18.358 39.913 18.4431C39.9844 18.5232 40.0388 18.5991 40.0762 18.6708C40.1187 18.7414 40.1491 18.8173 40.1674 18.8986C40.2438 19.2392 40.1706 19.4959 39.9478 19.6687C39.7238 19.8365 39.4212 19.9631 39.0399 20.0487C38.6587 20.1343 38.3429 20.1785 38.0926 20.1812C38.1244 20.2755 38.1715 20.3664 38.2338 20.4539C38.2962 20.5413 38.361 20.6042 38.4284 20.6425C38.5517 20.7163 38.6651 20.7575 38.7685 20.7664C38.8759 20.769 39.0134 20.7514 39.1812 20.7138C39.4354 20.6567 39.6228 20.564 39.7434 20.4354C39.8562 20.3193 39.9482 20.2533 40.0193 20.2373C40.1159 20.2157 40.1965 20.2296 40.261 20.2792C40.3244 20.3237 40.3663 20.3917 40.3869 20.4832C40.4302 20.6764 40.3411 20.8619 40.1194 21.0398C39.9027 21.2166 39.6394 21.3398 39.3293 21.4094C39.0853 21.4641 38.8342 21.4751 38.5758 21.4423C38.3175 21.4095 38.0995 21.3303 37.9218 21.2047C37.7887 21.0637 37.6578 20.8848 37.5291 20.6681C37.4003 20.4514 37.312 20.2363 37.2641 20.0228ZM38.7294 18.7008C38.6176 18.7259 38.5052 18.7725 38.3923 18.8405C38.2834 18.9023 38.2045 18.9788 38.1555 19.0699C38.0935 19.1745 38.0502 19.267 38.0255 19.3473C38.0059 19.4265 38.003 19.5206 38.0168 19.6296C38.0727 19.617 38.1267 19.6076 38.1786 19.6013C38.2306 19.595 38.2801 19.5892 38.3269 19.584C38.5552 19.5541 38.7252 19.5267 38.837 19.5016C39.0607 19.4514 39.2236 19.3801 39.3257 19.2878C39.4328 19.1943 39.4739 19.0917 39.4488 18.9798C39.4248 18.8731 39.3345 18.7919 39.1779 18.7363C39.0263 18.6795 38.8768 18.6677 38.7294 18.7008Z" fill="black"/>
</svg>
